<svg xmlns="http://www.w3.org/2000/svg" xmlns:xlink="http://www.w3.org/1999/xlink"><symbol id="icon-arrow" viewBox="0 0 16 32">
<path d="M14.839 2.27597C15.0818 2.0245 15.2162 1.6877 15.2132 1.33811C15.2102 0.988509 15.0699 0.654093 14.8227 0.406882C14.5755 0.159671 14.2411 0.0194457 13.8915 0.0164078C13.5419 0.0133699 13.2051 0.147762 12.9536 0.39064L2.05762 11.2866C0.807816 12.5368 0.105713 14.2322 0.105713 16C0.105713 17.7677 0.807816 19.4631 2.05762 20.7133L12.9536 31.6093C13.2051 31.8522 13.5419 31.9866 13.8915 31.9835C14.2411 31.9805 14.5755 31.8403 14.8227 31.5931C15.0699 31.3459 15.2102 31.0114 15.2132 30.6618C15.2162 30.3122 15.0818 29.9754 14.839 29.724L3.94296 18.828C3.19307 18.0779 2.77181 17.0606 2.77181 16C2.77181 14.9393 3.19307 13.9221 3.94296 13.172L14.839 2.27597Z" fill="var(--hover, #C2C8CD)"/>
</symbol><symbol id="icon-delivery-truck" viewBox="0 0 72 72">
<path d="M69.8076 40.71C62.2436 29.128 63.0476 17.2561 59.4016 11.6741C55.7556 6.09205 44.8896 -3.53195 19.2156 13.2381C-6.45841 30.0081 0.0715873 48.238 4.08359 54.376C22.8596 83.12 83.2056 61.222 69.8076 40.71V40.71Z" fill="#ECEFF2"/>
<path d="M61.9115 42.0325L63.3257 40.6183L66.1542 43.4467L64.7399 44.8609L61.9115 42.0325Z" fill="#C2C8CD"/>
<path d="M53.7802 33.9028L55.1944 32.4886L58.0228 35.317L56.6086 36.7313L53.7802 33.9028Z" fill="#C2C8CD"/>
<path d="M62.2688 35.3269L65.0972 32.4985L66.5114 33.9127L63.683 36.7411L62.2688 35.3269Z" fill="#C2C8CD"/>
<path d="M37.9795 66.1602C36.3255 66.1602 34.9795 64.8142 34.9795 63.1602C34.9795 61.5062 36.3255 60.1602 37.9795 60.1602C39.6335 60.1602 40.9795 61.5062 40.9795 63.1602C40.9795 64.8142 39.6335 66.1602 37.9795 66.1602ZM37.9795 62.1602C37.4275 62.1602 36.9795 62.6082 36.9795 63.1602C36.9795 63.7122 37.4275 64.1602 37.9795 64.1602C38.5315 64.1602 38.9795 63.7122 38.9795 63.1602C38.9795 62.6082 38.5315 62.1602 37.9795 62.1602Z" fill="#C2C8CD"/>
<path d="M39.0603 33.5H16.5003V40.5V54.5H23.5003H30.4603H45.5003V40.6V33.5H39.0603Z" fill="#F3F3F1"/>
<path d="M50.4999 40.5999H45.5V54.4999H47.5H54.4579H58.4999V48.5999C58.4999 44.1819 54.9179 40.5999 50.4999 40.5999Z" fill="#2A6CEA"/>
<path d="M26.9998 58.5C28.9328 58.5 30.4998 56.933 30.4998 55C30.4998 53.067 28.9328 51.5 26.9998 51.5C25.0668 51.5 23.4997 53.067 23.4997 55C23.4997 56.933 25.0668 58.5 26.9998 58.5Z" fill="#F3F3F1"/>
<path d="M51.0005 58.5C52.9335 58.5 54.5005 56.933 54.5005 55C54.5005 53.067 52.9335 51.5 51.0005 51.5C49.0675 51.5 47.5005 53.067 47.5005 55C47.5005 56.933 49.0675 58.5 51.0005 58.5Z" fill="#F3F3F1"/>
<path d="M25 36.5C31.3513 36.5 36.5 31.3513 36.5 25C36.5 18.6487 31.3513 13.5 25 13.5C18.6487 13.5 13.5 18.6487 13.5 25C13.5 31.3513 18.6487 36.5 25 36.5Z" fill="#2A6CEA"/>
<path d="M21 36H16V42.3333V55H21V42.3333V36Z" fill="#E1E6EA"/>
<path d="M45.5 40.5999V54.4999H47.5H50V40.5999H45.5Z" fill="#191C1F" fill-opacity="0.1"/>
<path d="M27.9998 55C27.9998 53.928 28.4918 52.982 29.2498 52.34C28.6398 51.824 27.8618 51.5 26.9998 51.5C25.0677 51.5 23.4997 53.068 23.4997 55C23.4997 56.932 25.0677 58.5 26.9998 58.5C27.8618 58.5 28.6398 58.176 29.2498 57.66C28.4918 57.018 27.9998 56.072 27.9998 55Z" fill="#D5DBE1"/>
<path d="M52.0005 55C52.0005 53.928 52.4925 52.982 53.2505 52.34C52.6405 51.824 51.8625 51.5 51.0005 51.5C49.0685 51.5 47.5005 53.068 47.5005 55C47.5005 56.932 49.0685 58.5 51.0005 58.5C51.8625 58.5 52.6405 58.176 53.2505 57.66C52.4925 57.018 52.0005 56.072 52.0005 55Z" fill="#D5DBE1"/>
<path d="M18 25C18 19.42 21.976 14.77 27.25 13.724C26.522 13.578 25.77 13.5 25 13.5C18.648 13.5 13.5 18.648 13.5 25C13.5 31.352 18.648 36.5 25 36.5C25.77 36.5 26.522 36.422 27.25 36.276C21.976 35.23 18 30.58 18 25V25Z" fill="#191C1F" fill-opacity="0.1"/>
<path d="M25.0001 30.5002C24.6161 30.5002 24.2321 30.3542 23.9401 30.0602L17.9401 24.0602L20.0621 21.9382L25.0021 26.8782L29.9421 21.9382L32.0641 24.0602L26.0641 30.0602C25.7681 30.3542 25.3841 30.5002 25.0001 30.5002V30.5002Z" fill="white"/>
<path d="M25.0006 56.0003H16.5006C15.6726 56.0003 15.0006 55.3283 15.0006 54.5003V38.7803H18.0006V53.0003H25.0006V56.0003Z" fill="#191C1F"/>
<path d="M45.5001 56.0002H28.9601V53.0002H44.0001V35.0002H38.7801V32.0002H45.5001C46.3281 32.0002 47.0001 32.6722 47.0001 33.5002V54.5002C47.0001 55.3282 46.3281 56.0002 45.5001 56.0002Z" fill="#191C1F"/>
<path d="M58.5003 56.0001H52.9583V53.0001H57.0003V48.6001C57.0003 45.0161 54.0843 42.1001 50.5003 42.1001H47.0003V53.0001H49.0003V56.0001H45.5003C44.6723 56.0001 44.0003 55.3281 44.0003 54.5001V40.6001C44.0003 39.7721 44.6723 39.1001 45.5003 39.1001H50.5003C55.7383 39.1001 60.0003 43.3621 60.0003 48.6001V54.5001C60.0003 55.3281 59.3283 56.0001 58.5003 56.0001Z" fill="#191C1F"/>
<path d="M27 60.0003C24.244 60.0003 22 57.7562 22 55.0002C22 52.2442 24.244 50.0002 27 50.0002C29.756 50.0002 32 52.2442 32 55.0002C32 57.7562 29.756 60.0003 27 60.0003ZM27 53.0002C25.898 53.0002 25 53.8982 25 55.0002C25 56.1022 25.898 57.0002 27 57.0002C28.102 57.0002 29 56.1022 29 55.0002C29 53.8982 28.102 53.0002 27 53.0002Z" fill="#191C1F"/>
<path d="M51.0008 60.0003C48.2448 60.0003 46.0008 57.7562 46.0008 55.0002C46.0008 52.2442 48.2448 50.0002 51.0008 50.0002C53.7568 50.0002 56.0008 52.2442 56.0008 55.0002C56.0008 57.7562 53.7568 60.0003 51.0008 60.0003ZM51.0008 53.0002C49.8988 53.0002 49.0008 53.8982 49.0008 55.0002C49.0008 56.1022 49.8988 57.0002 51.0008 57.0002C52.1028 57.0002 53.0008 56.1022 53.0008 55.0002C53.0008 53.8982 52.1028 53.0002 51.0008 53.0002Z" fill="#191C1F"/>
</symbol><symbol id="icon-money-bags" viewBox="0 0 72 72">
<path d="M26.8214 70.094C39.4174 64.376 51.0314 66.976 57.1014 64.222C63.1714 61.466 74.3354 52.19 61.6614 24.266C48.9874 -3.65797 29.9794 0.0240283 23.3014 3.05603C-7.96258 17.244 4.51143 80.218 26.8214 70.094V70.094Z" fill="#ECEFF2"/>
<path d="M27.2939 19.7H27.1139L31.7999 15.952C32.8199 15.14 32.2399 13.5 30.9459 13.5H18.1319C16.8359 13.5 16.2579 15.14 17.2779 15.952L21.9619 19.7H21.7819C17.0139 22.496 13.1699 30.46 13.1699 36.234C13.1699 40.368 15.2359 44.5 20.0579 44.5H29.3579C34.1799 44.5 36.2459 40.366 36.2459 36.234C36.2499 30.46 32.0619 22.496 27.2939 19.7V19.7Z" fill="#F3F3F1"/>
<path d="M17.6712 36.234C17.6712 30.462 21.5152 22.498 26.2832 19.7H26.4632L21.7792 15.952C20.7592 15.14 21.3392 13.5 22.6332 13.5H18.1332C16.8372 13.5 16.2592 15.14 17.2792 15.952L21.9632 19.7H21.7832C17.0152 22.496 13.1712 30.46 13.1712 36.234C13.1712 40.368 15.2372 44.5 20.0592 44.5H24.5592C19.7372 44.5 17.6712 40.366 17.6712 36.234V36.234Z" fill="#E1E6EA"/>
<path d="M49.7164 19.7H49.5364L54.2204 15.952C55.2404 15.14 54.6604 13.5 53.3664 13.5H40.5524C39.2564 13.5 38.6784 15.14 39.6984 15.952L44.3824 19.7H44.2024C39.4344 22.496 35.5904 30.46 35.5904 36.234C35.5904 40.368 37.6564 44.5 42.4784 44.5H51.7784C56.6004 44.5 58.6664 40.366 58.6664 36.234C58.6724 30.46 54.4844 22.496 49.7164 19.7V19.7Z" fill="#F3F3F1"/>
<path d="M40.0939 36.234C40.0939 30.462 43.9379 22.498 48.7059 19.7H48.8859L44.1999 15.952C43.1799 15.14 43.7599 13.5 45.0539 13.5H40.5539C39.2579 13.5 38.6799 15.14 39.6999 15.952L44.3839 19.7H44.2039C39.4359 22.496 35.5919 30.46 35.5919 36.234C35.5919 40.368 37.6579 44.5 42.4799 44.5H46.9799C42.1619 44.5 40.0939 40.366 40.0939 36.234V36.234Z" fill="#E1E6EA"/>
<path d="M38.8341 33.7H38.6541L43.3381 29.952C44.3581 29.14 43.7781 27.5 42.4841 27.5H29.6701C28.3741 27.5 27.7961 29.14 28.8161 29.952L33.5001 33.7H33.3201C28.5521 36.496 24.7081 44.46 24.7081 50.234C24.7081 54.368 26.7741 58.5 31.5961 58.5H40.8961C45.7181 58.5 47.7841 54.366 47.7841 50.234C47.7881 44.46 43.6001 36.496 38.8341 33.7V33.7Z" fill="#2A6CEA"/>
<path d="M35.06 52.4C34.664 52.4 34.28 52.242 34 51.96L30 47.96L32.122 45.838L34.9 48.616L39.86 42L42.258 43.8L36.258 51.8C35.998 52.148 35.6 52.366 35.164 52.396C35.13 52.4 35.096 52.4 35.06 52.4V52.4Z" fill="white"/>
<path d="M29.2121 50.234C29.2121 44.462 33.0561 36.498 37.8241 33.7H38.0041L33.3201 29.952C32.3001 29.14 32.8801 27.5 34.1741 27.5H29.6741C28.3781 27.5 27.8001 29.14 28.8201 29.952L33.5041 33.7H33.3241C28.5561 36.496 24.7121 44.46 24.7121 50.234C24.7121 54.368 26.7781 58.5 31.6001 58.5H36.1001C31.2781 58.5 29.2121 54.366 29.2121 50.234V50.234Z" fill="#191C1F" fill-opacity="0.1"/>
<path d="M59.9324 54.8193L62.7608 51.9909L64.175 53.4051L61.3466 56.2335L59.9324 54.8193Z" fill="#C2C8CD"/>
<path d="M51.8017 62.9485L54.6301 60.1201L56.0443 61.5343L53.2159 64.3627L51.8017 62.9485Z" fill="#C2C8CD"/>
<path d="M51.8012 53.0505L53.2154 51.6363L56.0438 54.4647L54.6296 55.879L51.8012 53.0505Z" fill="#C2C8CD"/>
<path d="M59.9307 61.1812L61.3449 59.7669L64.1734 62.5954L62.7592 64.0096L59.9307 61.1812Z" fill="#C2C8CD"/>
<path d="M28.3807 20.872L26.5067 18.528L30.9187 15H18.8167L23.2287 18.528L21.3547 20.872L16.6707 17.124C15.7007 16.352 15.3407 15.094 15.7507 13.924C16.1587 12.756 17.2247 12 18.4607 12H31.2747C32.5127 12 33.5747 12.756 33.9847 13.926C34.3947 15.096 34.0327 16.352 33.0647 17.126L28.3807 20.872Z" fill="#191C1F"/>
<path d="M17.6338 18.2H32.0997V21.2H17.6338V18.2Z" fill="#191C1F"/>
<path d="M20.3903 46C14.5943 46 12.0003 41.094 12.0003 36.232C12.0003 30.396 15.8403 21.638 21.3523 18.406L22.8703 20.992C18.7503 23.41 15.0003 30.674 15.0003 36.232C15.0003 37.362 15.2603 43 20.3903 43V46Z" fill="#191C1F"/>
<path d="M50.6462 20.872L48.7722 18.528L53.1842 15H41.0821L45.4941 18.528L43.6201 20.872L38.9361 17.126C37.9681 16.352 37.6061 15.094 38.0161 13.924C38.4261 12.756 39.4901 12 40.7261 12H53.5402C54.7782 12 55.8402 12.756 56.2502 13.926C56.6602 15.096 56.2982 16.352 55.3302 17.126L50.6462 20.872Z" fill="#191C1F"/>
<path d="M39.8999 18.2H54.3659V21.2H39.8999V18.2Z" fill="#191C1F"/>
<path d="M51.6117 46V43C56.7397 43 56.9997 37.364 56.9997 36.232C56.9997 30.674 53.2497 23.41 49.1297 20.992L50.6477 18.406C56.1577 21.638 59.9997 30.396 59.9997 36.232C59.9997 41.094 57.4057 46 51.6117 46Z" fill="#191C1F"/>
</symbol><symbol id="icon-secure" viewBox="0 0 72 72">
<path d="M8.33415 55.2461C8.33415 41.4121 1.16815 31.9121 1.16815 25.2461C1.16815 18.5801 5.00015 4.58008 35.6662 4.58008C66.3322 4.58008 70.8322 23.4141 70.8322 30.7461C70.8342 65.0801 8.33415 79.7461 8.33415 55.2461V55.2461Z" fill="#ECEFF2"/>
<path d="M53.2497 16.5H55.2497V20.5H53.2497V16.5Z" fill="#C2C8CD"/>
<path d="M57.7497 22.5H61.7497V24.5H57.7497V22.5Z" fill="#C2C8CD"/>
<path d="M42.5 48.64V17.5C42.5 15.29 40.71 13.5 38.5 13.5H17.5C15.29 13.5 13.5 15.29 13.5 17.5V48.64C13.5 50.85 15.29 52.64 17.5 52.64H38.5C40.71 52.64 42.5 50.85 42.5 48.64Z" fill="#F3F3F1"/>
<path d="M47.9997 58.5C47.9997 58.5 58.4997 54.036 58.4997 45.108C58.4997 41.536 58.4997 37.072 58.4997 37.072L47.9997 33.5L37.4997 37.072V45.108C37.4997 54.036 47.9997 58.5 47.9997 58.5Z" fill="#2A6CEA"/>
<path d="M18 48.64V17.5C18 15.29 19.79 13.5 22 13.5H17.5C15.29 13.5 13.5 15.29 13.5 17.5V48.64C13.5 50.85 15.29 52.64 17.5 52.64H22C19.79 52.64 18 50.85 18 48.64Z" fill="#E1E6EA"/>
<path d="M41.9997 45.108C41.9997 39.75 41.9997 37.072 41.9997 37.072L50.2497 34.266L47.9997 33.5L37.4997 37.072V45.108C37.4997 54.036 47.9997 58.5 47.9997 58.5C47.9997 58.5 48.9417 58.094 50.2497 57.302C47.1657 55.434 41.9997 51.376 41.9997 45.108Z" fill="#191C1F" fill-opacity="0.1"/>
<path d="M30.5003 54H17.5003C14.4663 54 12.0003 51.534 12.0003 48.5V17.5C12.0003 14.466 14.4663 12 17.5003 12H38.5003C41.5343 12 44.0003 14.466 44.0003 17.5V28.5H41.0003V17.5C41.0003 16.122 39.8783 15 38.5003 15H17.5003C16.1223 15 15.0003 16.122 15.0003 17.5V48.5C15.0003 49.878 16.1223 51 17.5003 51H30.5003V54Z" fill="#191C1F"/>
<path d="M20.5599 37.5599L18.4399 35.4399L23.4399 30.4399C23.9179 29.9599 24.6559 29.8619 25.2439 30.1979L27.7899 31.6539L33.4819 26.3999L35.5179 28.6059L29.0179 34.6059C28.5359 35.0499 27.8219 35.1299 27.2559 34.8059L24.7499 33.3739L20.5599 37.5599Z" fill="#191C1F"/>
<path d="M35.9998 34H32.9998V29H27.9998V26H34.4998C35.3278 26 35.9998 26.672 35.9998 27.5V34Z" fill="#191C1F"/>
<path d="M47.4996 50.9999C47.1036 50.9999 46.7196 50.8419 46.4396 50.5599L42.4396 46.5599L44.5616 44.4379L47.3396 47.2159L52.2996 40.5999L54.6976 42.3999L48.6976 50.3999C48.4376 50.7479 48.0396 50.9658 47.6036 50.9958C47.5696 50.9998 47.5356 50.9999 47.4996 50.9999V50.9999Z" fill="white"/>
</symbol><symbol id="icon-waiting" viewBox="0 0 72 72">
<path d="M69.8076 40.71C62.2436 29.128 63.0476 17.2561 59.4016 11.6741C55.7556 6.09205 44.8896 -3.53195 19.2156 13.2381C-6.45842 30.0081 0.0715797 48.238 4.08358 54.376C22.8596 83.12 83.2056 61.222 69.8076 40.71V40.71Z" fill="#ECEFF2"/>
<path d="M37.5 22.892C37.5 23.352 37.198 23.748 36.78 23.884L27.066 27.066L23.884 36.78C23.748 37.198 23.352 37.5 22.892 37.5C22.444 37.5 22.068 37.218 21.922 36.832L13.574 14.92C13.52 14.804 13.5 14.68 13.5 14.544C13.5 13.97 13.97 13.5 14.544 13.5C14.68 13.5 14.804 13.52 14.92 13.574L36.834 21.922C37.218 22.066 37.5 22.442 37.5 22.892V22.892Z" fill="#F3F3F1"/>
<path d="M18.074 14.92C18.052 14.872 18.054 14.814 18.042 14.764L14.92 13.574C14.804 13.52 14.68 13.5 14.544 13.5C13.97 13.5 13.5 13.97 13.5 14.544C13.5 14.68 13.52 14.804 13.572 14.92L21.92 36.834C22.066 37.22 22.442 37.502 22.89 37.502C23.35 37.502 23.746 37.2 23.882 36.782L25.046 33.228L18.074 14.92Z" fill="#E1E6EA"/>
<path d="M45 58.5C52.4558 58.5 58.5 52.4558 58.5 45C58.5 37.5442 52.4558 31.5 45 31.5C37.5442 31.5 31.5 37.5442 31.5 45C31.5 52.4558 37.5442 58.5 45 58.5Z" fill="#2A6CEA"/>
<path d="M36 45C36 38.312 40.868 32.776 47.25 31.702C46.516 31.578 45.768 31.5 45 31.5C37.544 31.5 31.5 37.544 31.5 45C31.5 52.456 37.544 58.5 45 58.5C45.768 58.5 46.516 58.42 47.25 58.298C40.868 57.224 36 51.688 36 45Z" fill="#191C1F" fill-opacity="0.1"/>
<path d="M60.257 25.3633L61.6713 23.9491L64.4997 26.7775L63.0855 28.1917L60.257 25.3633Z" fill="#C2C8CD"/>
<path d="M52.1286 17.23L53.5428 15.8158L56.3713 18.6442L54.957 20.0584L52.1286 17.23Z" fill="#C2C8CD"/>
<path d="M60.6128 18.6458L63.4413 15.8173L64.8555 17.2315L62.0271 20.06L60.6128 18.6458Z" fill="#C2C8CD"/>
<path d="M52.4832 26.7749L55.3117 23.9465L56.7259 25.3607L53.8974 28.1891L52.4832 26.7749Z" fill="#C2C8CD"/>
<path d="M49.5492 51.66L44.0492 47.16C43.6992 46.876 43.4992 46.45 43.4992 46V37.5H46.4992V45.29L51.4493 49.34L49.5492 51.66Z" fill="white"/>
<path d="M22.8903 39C21.8423 39 20.8883 38.342 20.5163 37.364L12.1703 15.454C12.0663 15.224 12.0003 14.894 12.0003 14.542C12.0003 13.14 13.1403 12 14.5423 12C14.8943 12 15.2243 12.066 15.5243 12.2L37.3643 20.518C38.3403 20.89 38.9983 21.842 38.9983 22.892C38.9983 23.996 38.2923 24.966 37.2443 25.31L28.2523 28.256L25.3063 37.248C24.9643 38.294 23.9943 39 22.8903 39V39ZM15.3343 15.336L22.8603 35.084L25.6403 26.598C25.7883 26.144 26.1463 25.788 26.5983 25.64L35.0843 22.86L15.3343 15.336ZM14.3863 14.974C14.3923 14.976 14.4003 14.98 14.4103 14.982L14.3863 14.974ZM14.9463 14.314L14.9723 14.382C14.9643 14.362 14.9563 14.34 14.9463 14.314Z" fill="#191C1F"/>
</symbol></svg>